<svg width="24" height="24" viewBox="0 0 24 24" fill="none" xmlns="http://www.w3.org/2000/svg">
<path d="M11.0303 8.52997C11.104 8.46131 11.1631 8.37851 11.2041 8.28651C11.2451 8.19451 11.2671 8.0952 11.2689 7.99449C11.2707 7.89379 11.2522 7.79376 11.2144 7.70037C11.1767 7.60698 11.1206 7.52215 11.0494 7.45093C10.9781 7.37971 10.8933 7.32357 10.7999 7.28585C10.7065 7.24813 10.6065 7.2296 10.5058 7.23138C10.4051 7.23316 10.3058 7.2552 10.2138 7.29619C10.1218 7.33718 10.039 7.39628 9.97032 7.46997L5.97032 11.47C5.82987 11.6106 5.75098 11.8012 5.75098 12C5.75098 12.1987 5.82987 12.3893 5.97032 12.53L9.97032 16.53C10.039 16.6037 10.1218 16.6628 10.2138 16.7038C10.3058 16.7447 10.4051 16.7668 10.5058 16.7686C10.6065 16.7703 10.7065 16.7518 10.7999 16.7141C10.8933 16.6764 10.9781 16.6202 11.0494 16.549C11.1206 16.4778 11.1767 16.393 11.2144 16.2996C11.2522 16.2062 11.2707 16.1062 11.2689 16.0054C11.2671 15.9047 11.2451 15.8054 11.2041 15.7134C11.1631 15.6214 11.104 15.5386 11.0303 15.47L8.31032 12.75H18.0003C18.1992 12.75 18.39 12.671 18.5306 12.5303C18.6713 12.3896 18.7503 12.1989 18.7503 12C18.7503 11.8011 18.6713 11.6103 18.5306 11.4696C18.39 11.329 18.1992 11.25 18.0003 11.25H8.31032L11.0303 8.52997Z" fill="url(#paint0_linear_358_1966)"/>
<defs>
<linearGradient id="paint0_linear_358_1966" x1="12.2506" y1="7.23126" x2="12.2506" y2="16.7687" gradientUnits="userSpaceOnUse">
<stop stop-color="white"/>
<stop offset="1" stop-color="#B7C0D2"/>
</linearGradient>
</defs>
</svg>
