<svg width="53" height="53" viewBox="0 0 53 53" fill="none" xmlns="http://www.w3.org/2000/svg">
<path d="M26.5001 49.1253C38.8557 49.1253 49.1254 38.8556 49.1254 26.5C49.1254 14.1226 38.833 3.87466 26.4774 3.87466C14.1009 3.87466 3.87573 14.1226 3.87573 26.5C3.87573 38.8556 14.1227 49.1253 26.5001 49.1253ZM16.7396 36.5037C14.3669 36.5037 13.1687 35.3283 13.1687 33.0209V21.1773C13.1687 18.8481 14.3669 17.6726 16.7396 17.6726H19.2912C20.178 17.6726 20.4439 17.473 20.955 16.9401L21.8636 15.9199C22.4409 15.299 23.0182 14.9659 24.1709 14.9659H28.6958C29.8495 14.9659 30.4259 15.299 30.9805 15.9199L31.89 16.9401C32.4011 17.5174 32.6661 17.6726 33.5538 17.6726H36.2161C38.5444 17.6726 39.7652 18.8481 39.7652 21.1773V33.0228C39.7652 35.3292 38.5444 36.5056 36.2161 36.5056L16.7396 36.5037ZM26.3449 33.354C30.0265 33.354 32.9775 30.4703 32.9775 26.6779C32.981 25.8059 32.8118 24.9419 32.4797 24.1356C32.1477 23.3293 31.6592 22.5968 31.0426 21.9802C30.4261 21.3636 29.6935 20.8752 28.8872 20.5431C28.0809 20.211 27.2169 20.0418 26.3449 20.0453C22.6633 20.0453 19.6678 22.9954 19.6678 26.6779C19.6648 27.5556 19.8355 28.4251 20.17 29.2365C20.5045 30.0479 20.9962 30.7851 21.6169 31.4057C22.2375 32.0262 22.9748 32.5178 23.7862 32.8522C24.5977 33.1866 25.4673 33.3571 26.3449 33.354ZM35.0615 23.7269C35.883 23.7269 36.5711 23.0616 36.5483 22.2193C36.5483 21.376 35.883 20.7107 35.0624 20.7107C34.2419 20.7107 33.5538 21.376 33.5538 22.2193C33.5538 23.0616 34.2409 23.7269 35.0615 23.7269ZM26.3458 31.4243C25.7221 31.4255 25.1042 31.3036 24.5277 31.0654C23.9511 30.8273 23.4273 30.4777 22.9862 30.0366C22.5451 29.5955 22.1955 29.0717 21.9574 28.4952C21.7192 27.9186 21.5973 27.3007 21.5986 26.677C21.5986 24.0601 23.728 21.9524 26.3458 21.9524C27.5987 21.9534 28.8 22.4516 29.6858 23.3376C30.5717 24.2237 31.0697 25.425 31.0704 26.6779C31.0723 27.2999 30.9515 27.9162 30.715 28.4914C30.4785 29.0667 30.1309 29.5897 29.6921 30.0306C29.2533 30.4714 28.7319 30.8214 28.1577 31.0605C27.5835 31.2997 26.9678 31.4233 26.3458 31.4243Z" fill="#F9F9F9"/>
</svg>
