<svg width="53" height="53" viewBox="0 0 53 53" fill="none" xmlns="http://www.w3.org/2000/svg">
<path fill-rule="evenodd" clip-rule="evenodd" d="M4.41675 26.5C4.41675 14.3033 14.3035 4.41663 26.5001 4.41663C38.6967 4.41663 48.5834 14.3033 48.5834 26.5C48.5834 38.6966 38.6967 48.5833 26.5001 48.5833C14.3035 48.5833 4.41675 38.6966 4.41675 26.5ZM28.7084 17.13C28.7084 16.5443 28.4758 15.9826 28.0616 15.5685C27.6475 15.1543 27.0858 14.9217 26.5001 14.9217C25.9144 14.9217 25.3527 15.1543 24.9386 15.5685C24.5244 15.9826 24.2917 16.5443 24.2917 17.13V24.2916H17.1301C16.5444 24.2916 15.9827 24.5243 15.5686 24.9384C15.1545 25.3526 14.9218 25.9143 14.9218 26.5C14.9218 27.0856 15.1545 27.6473 15.5686 28.0615C15.9827 28.4756 16.5444 28.7083 17.1301 28.7083H24.2917V35.8699C24.2917 36.4556 24.5244 37.0173 24.9386 37.4314C25.3527 37.8456 25.9144 38.0783 26.5001 38.0783C27.0858 38.0783 27.6475 37.8456 28.0616 37.4314C28.4758 37.0173 28.7084 36.4556 28.7084 35.8699V28.7083H35.87C36.4557 28.7083 37.0174 28.4756 37.4316 28.0615C37.8457 27.6473 38.0784 27.0856 38.0784 26.5C38.0784 25.9143 37.8457 25.3526 37.4316 24.9384C37.0174 24.5243 36.4557 24.2916 35.87 24.2916H28.7084V17.13Z" fill="#B8B8CA"/>
</svg>
