<svg width="28" height="29" viewBox="0 0 28 29" fill="none" xmlns="http://www.w3.org/2000/svg">
<g filter="url(#filter0_dg_325_1881)">
<path d="M19.5236 23.0041C19.3637 23.0048 19.206 22.967 19.0636 22.8941L13.9636 20.2241L8.86363 22.8941C8.69802 22.9812 8.51131 23.0201 8.32471 23.0063C8.13811 22.9926 7.95911 22.9267 7.80806 22.8163C7.65701 22.7059 7.53997 22.5553 7.47024 22.3817C7.40052 22.208 7.3809 22.0183 7.41363 21.8341L8.41363 16.2041L4.29363 12.2041C4.16509 12.0758 4.0739 11.915 4.02986 11.7388C3.98581 11.5626 3.99057 11.3778 4.04363 11.2041C4.10159 11.0264 4.20821 10.8685 4.35138 10.7483C4.49455 10.6281 4.66855 10.5504 4.85363 10.5241L10.5536 9.69411L13.0636 4.56411C13.1455 4.39504 13.2734 4.25245 13.4325 4.15268C13.5917 4.05292 13.7758 4 13.9636 4C14.1515 4 14.3355 4.05292 14.4947 4.15268C14.6539 4.25245 14.7817 4.39504 14.8636 4.56411L17.4036 9.68411L23.1036 10.5141C23.2887 10.5404 23.4627 10.6181 23.6059 10.7383C23.7491 10.8585 23.8557 11.0164 23.9136 11.1941C23.9667 11.3678 23.9714 11.5526 23.9274 11.7288C23.8834 11.905 23.7922 12.0658 23.6636 12.1941L19.5436 16.1941L20.5436 21.8241C20.5793 22.0116 20.5606 22.2054 20.4898 22.3826C20.4189 22.5598 20.2988 22.713 20.1436 22.8241C19.9625 22.951 19.7445 23.0143 19.5236 23.0041Z" fill="#E8E8EE"/>
</g>
<defs>
<filter id="filter0_dg_325_1881" x="0" y="0" width="27.957" height="29.009" filterUnits="userSpaceOnUse" color-interpolation-filters="sRGB">
<feFlood flood-opacity="0" result="BackgroundImageFix"/>
<feColorMatrix in="SourceAlpha" type="matrix" values="0 0 0 0 0 0 0 0 0 0 0 0 0 0 0 0 0 0 127 0" result="hardAlpha"/>
<feOffset dy="2"/>
<feGaussianBlur stdDeviation="2"/>
<feComposite in2="hardAlpha" operator="out"/>
<feColorMatrix type="matrix" values="0 0 0 0 0 0 0 0 0 0 0 0 0 0 0 0 0 0 0.25 0"/>
<feBlend mode="normal" in2="BackgroundImageFix" result="effect1_dropShadow_325_1881"/>
<feBlend mode="normal" in="SourceGraphic" in2="effect1_dropShadow_325_1881" result="shape"/>
<feTurbulence type="fractalNoise" baseFrequency="0.99900001287460327 0.99900001287460327" numOctaves="3" seed="7488" />
<feDisplacementMap in="shape" scale="8" xChannelSelector="R" yChannelSelector="G" result="displacedImage" width="100%" height="100%" />
<feMerge result="effect2_texture_325_1881">
<feMergeNode in="displacedImage"/>
</feMerge>
</filter>
</defs>
</svg>
